<?xml version="1.0" encoding="utf-8"?><svg xmlns="http://www.w3.org/2000/svg" xmlns:xlink="http://www.w3.org/1999/xlink" width="1536" height="322" preserveAspectRatio="xMidYMid" viewBox="0 0 1536 322" style="z-index:1;margin-right:-1.6px;display:block;animation-play-state:paused" ><g transform="translate(768,161) scale(-1,-1) translate(-768,-161)" style="transform:matrix(-1, 0, 0, -1, 1536, 322);animation-play-state:paused" ><linearGradient id="lg-0.29908515984189044" x1="0" x2="1" y1="0" y2="0" style="animation-play-state:paused" ><stop stop-color="#1d7a8c" offset="0" style="animation-play-state:paused" ></stop>

  
<stop stop-color="#c0dbf9" offset="1" style="animation-play-state:paused" ></stop></linearGradient>
<path d="M 0 0 L 0 307.771 Q 96 279.29 192 246.978 T 384 258.093 T 576 205.235 T 768 173.522 T 960 131.168 T 1152 149.108 T 1344 77.7218 T 1536 52.6855 L 1536 0 Z" fill="url(#lg-0.29908515984189044)" opacity="0.4" style="opacity:0.4;animation-play-state:paused" ></path>
<path d="M 0 0 L 0 305.008 Q 96 267.273 192 229.895 T 384 207.808 T 576 215.296 T 768 163.174 T 960 121.515 T 1152 100.144 T 1344 63.0732 T 1536 48.2601 L 1536 0 Z" fill="url(#lg-0.29908515984189044)" opacity="0.4" style="opacity:0.4;animation-play-state:paused" ></path>
<path d="M 0 0 L 0 255.248 Q 96 328.346 192 290.496 T 384 250.983 T 576 238.21 T 768 151.991 T 960 143.624 T 1152 157.019 T 1344 108.104 T 1536 65.9468 L 1536 0 Z" fill="url(#lg-0.29908515984189044)" opacity="0.4" style="opacity:0.4;animation-play-state:paused" ></path>
<path d="M 0 0 L 0 253.116 Q 96 297.294 192 259.377 T 384 227.524 T 576 200.105 T 768 168.65 T 960 173.258 T 1152 144.343 T 1344 105.531 T 1536 35.706 L 1536 0 Z" fill="url(#lg-0.29908515984189044)" opacity="0.4" style="opacity:0.4;animation-play-state:paused" ></path>
<path d="M 0 0 L 0 276.496 Q 96 256.551 192 228.14 T 384 239.657 T 576 194.23 T 768 175.836 T 960 174.949 T 1152 121.996 T 1344 130.603 T 1536 96.4197 L 1536 0 Z" fill="url(#lg-0.29908515984189044)" opacity="0.4" style="opacity:0.4;animation-play-state:paused" ></path></g></svg>