<?xml version="1.0" encoding="utf-8"?><svg xmlns="http://www.w3.org/2000/svg" xmlns:xlink="http://www.w3.org/1999/xlink" width="1536" height="322" preserveAspectRatio="xMidYMid" viewBox="0 0 1536 322" style="z-index:1;margin-right:-1.6px;display:block;animation-play-state:paused" ><g transform="translate(768,161) scale(1,1) translate(-768,-161)" style="transform:matrix(1, 0, 0, 1, 0, 0);animation-play-state:paused" ><linearGradient id="lg-0.20938972070298534" x1="0" x2="1" y1="0" y2="0" style="animation-play-state:paused" ><stop stop-color="#1d7a8c" offset="0" style="animation-play-state:paused" ></stop>

  
<stop stop-color="#c0dbf9" offset="1" style="animation-play-state:paused" ></stop></linearGradient>
<path d="M 0 0 L 0 313.749 Q 96 255.437 192 229.849 T 384 202.92 T 576 210.767 T 768 167.716 T 960 162.152 T 1152 118.891 T 1344 151.92 T 1536 59.5914 L 1536 0 Z" fill="url(#lg-0.20938972070298534)" opacity="0.4" style="opacity:0.4;animation-play-state:paused" ></path>
<path d="M 0 0 L 0 274.231 Q 96 306.716 192 276.848 T 384 239.901 T 576 205.704 T 768 152.514 T 960 135.759 T 1152 106.165 T 1344 106.859 T 1536 86.0307 L 1536 0 Z" fill="url(#lg-0.20938972070298534)" opacity="0.4" style="opacity:0.4;animation-play-state:paused" ></path>
<path d="M 0 0 L 0 289.996 Q 96 279.037 192 250.591 T 384 204.863 T 576 185.039 T 768 165.21 T 960 128.578 T 1152 81.0942 T 1344 113.62 T 1536 60.3281 L 1536 0 Z" fill="url(#lg-0.20938972070298534)" opacity="0.4" style="opacity:0.4;animation-play-state:paused" ></path>
<path d="M 0 0 L 0 278.932 Q 96 308.964 192 265.746 T 384 215.593 T 576 195.628 T 768 168.716 T 960 184.669 T 1152 89.4519 T 1344 86.629 T 1536 98.7555 L 1536 0 Z" fill="url(#lg-0.20938972070298534)" opacity="0.4" style="opacity:0.4;animation-play-state:paused" ></path>
<path d="M 0 0 L 0 301.49 Q 96 304.147 192 268.063 T 384 250.995 T 576 187.919 T 768 156.115 T 960 161.389 T 1152 104.67 T 1344 101.926 T 1536 68.1109 L 1536 0 Z" fill="url(#lg-0.20938972070298534)" opacity="0.4" style="opacity:0.4;animation-play-state:paused" ></path></g></svg>